<svg xmlns="http://www.w3.org/2000/svg" xmlns:svgjs="http://svgjs.com/svgjs" xmlns:xlink="http://www.w3.org/1999/xlink" width="512" height="512" x="0" y="0" version="1.1" viewBox="0 0 512 512" style="enable-background:new 0 0 512 512" xml:space="preserve"><rect width="512" height="512" fill="#fff" shape="square"/><g><g xmlns="http://www.w3.org/2000/svg"><g><path fill="#6c757d" d="M256,0C114.497,0,0,114.507,0,256c0,141.503,114.507,256,256,256c141.503,0,256-114.507,256-256 C512,114.497,397.492,0,256,0z M256,472c-119.393,0-216-96.615-216-216c0-119.393,96.615-216,216-216 c119.393,0,216,96.615,216,216C472,375.393,375.384,472,256,472z" data-original="#000000" transform="matrix(0.7,0,0,0.7,76.80000000000001,76.80000000000001)"/></g></g><g xmlns="http://www.w3.org/2000/svg"><g><path fill="#6c757d" d="M256,214.33c-11.046,0-20,8.954-20,20v128.793c0,11.046,8.954,20,20,20s20-8.955,20-20.001V234.33 C276,223.284,267.046,214.33,256,214.33z" data-original="#000000" transform="matrix(0.7,0,0,0.7,76.80000000000001,76.80000000000001)"/></g></g><g xmlns="http://www.w3.org/2000/svg"><g transform="matrix(0.7,0,0,0.7,76.80000000000001,76.80000000000001)"><circle cx="256" cy="162.84" r="27" fill="#6c757d" data-original="#000000"/></g></g></g></svg>